<svg aria-hidden="true" style="position: absolute; width: 0; height: 0; overflow: hidden;" version="1.1" xmlns="http://www.w3.org/2000/svg" xmlns:xlink="http://www.w3.org/1999/xlink">
  <defs>
    <symbol id="icon-cup-hot" viewBox="0 0 32 32">
      <path d="M7.571 0.12c-0.267 0.136-0.501 0.421-0.926 1.133-0.568 0.95-0.725 1.586-0.568 2.314 0.093 0.427 0.424 1.072 0.856 1.661 0.683 0.931 0.998 1.422 1.035 1.616 0.043 0.229-0.131 0.611-0.592 1.302-0.426 0.637-0.467 0.97-0.179 1.438 0.237 0.384 0.88 0.51 1.31 0.259 0.358-0.211 1.182-1.528 1.382-2.213 0.245-0.843 0.019-1.667-0.763-2.768-0.846-1.194-1.018-1.456-1.077-1.653-0.056-0.189-0.050-0.242 0.069-0.499 0.159-0.31 0.312-0.568 0.479-0.815l-0.018 0.028c0.366-0.558 0.446-0.784 0.387-1.096-0.047-0.347-0.283-0.629-0.598-0.742l-0.006-0.002c-0.105-0.049-0.229-0.078-0.359-0.078-0.159 0-0.307 0.043-0.435 0.117l0.004-0.002zM13.467 0.182c-0.39 0.234-1.219 1.629-1.398 2.354-0.040 0.132-0.062 0.284-0.062 0.441 0 0.115 0.012 0.227 0.035 0.336l-0.002-0.010c0.11 0.762 0.165 0.859 1.523 2.822 0.461 0.662 0.49 0.814 0.251 1.286-0.093 0.184-0.304 0.538-0.467 0.784-0.362 0.542-0.422 0.862-0.234 1.232 0.29 0.568 1.061 0.734 1.523 0.328 0.234-0.205 0.782-1.053 1.048-1.618 0.584-1.246 0.395-1.998-0.966-3.845-0.406-0.55-0.624-0.909-0.69-1.138-0.058-0.2 0.077-0.502 0.533-1.206 0.362-0.557 0.451-0.803 0.4-1.090-0.097-0.466-0.504-0.811-0.991-0.811-0.185 0-0.359 0.050-0.508 0.137l0.005-0.003zM19.518 0.152c-0.307 0.163-0.883 1.008-1.277 1.874-0.21 0.462-0.272 1.040-0.165 1.541 0.093 0.427 0.424 1.072 0.856 1.661 0.683 0.931 0.998 1.422 1.035 1.616 0.043 0.229-0.131 0.611-0.592 1.302-0.426 0.637-0.467 0.97-0.179 1.438 0.237 0.384 0.88 0.51 1.31 0.259 0.25-0.147 0.661-0.718 1.058-1.47 0.306-0.578 0.408-0.936 0.408-1.418 0-0.733-0.272-1.322-1.195-2.582-0.221-0.29-0.438-0.618-0.635-0.96l-0.024-0.045c-0.163-0.355-0.133-0.491 0.251-1.104 0.574-0.915 0.589-0.946 0.59-1.206 0-0.001 0-0.002 0-0.004 0-0.141-0.020-0.278-0.059-0.406l0.003 0.010c-0.108-0.224-0.275-0.406-0.482-0.527l-0.006-0.003c-0.206-0.107-0.674-0.094-0.898 0.024zM0.613 12.101c-0.127 0.060-0.236 0.136-0.33 0.226l0-0c-0.142 0.154-0.283 0.477-0.283 0.646 0 0.067 0.765 3.566 1.701 7.774 1.149 5.17 1.755 7.792 1.866 8.080 0.57 1.469 1.891 2.627 3.458 3.027l0.469 0.118h13.014l0.48-0.125c0.947-0.242 1.758-0.73 2.389-1.39l0.002-0.002c0.733-0.768 1.112-1.538 1.397-2.838l0.147-0.675 0.782 0.029c0.91 0.035 1.459-0.029 2.163-0.254 0.968-0.311 1.794-0.834 2.456-1.517l0.001-0.001c0.684-0.694 1.2-1.555 1.484-2.516l0.011-0.043c0.125-0.419 0.146-0.6 0.168-1.422 0.034-1.288-0.094-1.907-0.602-2.925-0.698-1.394-2.051-2.552-3.493-2.99-0.283-0.085-0.357-0.128-0.339-0.198 0.181-0.762 0.446-2.032 0.445-2.138-0.002-0.189-0.17-0.539-0.325-0.683-0.33-0.304 0.642-0.283-13.685-0.282-12.683 0-13.17 0.005-13.376 0.099zM25.723 14.013c0.013 0.022-0.672 3.16-1.518 6.974-1.749 7.861-1.627 7.434-2.299 8.106-0.361 0.374-0.816 0.655-1.328 0.804l-0.021 0.005c-0.299 0.093-0.654 0.098-6.557 0.098s-6.258-0.005-6.557-0.098c-0.533-0.154-0.988-0.435-1.348-0.809l-0.001-0.001c-0.672-0.672-0.55-0.245-2.299-8.106-0.846-3.814-1.531-6.952-1.518-6.974 0.030-0.051 23.416-0.051 23.446 0zM27.533 17.312c1.101 0.464 1.88 1.333 2.29 2.555 0.107 0.325 0.125 0.474 0.122 1.146-0.002 0.706-0.014 0.811-0.149 1.2-0.24 0.691-0.483 1.072-1.016 1.602-0.803 0.798-1.667 1.163-2.762 1.17-0.312 0.002-0.586-0.014-0.606-0.035-0.029-0.029 1.523-7.2 1.662-7.682 0.035-0.123 0.069-0.12 0.459 0.045z"></path>
    </symbol>

    <symbol id="icon-diagram" viewBox="0 0 32 32">
      <path d="M14.363 4.078c-1.043 0.24-1.867 0.992-2.206 1.971l-0.006 0.021c-0.118 0.341-0.123 0.424-0.123 1.93s0.005 1.589 0.123 1.93c0.384 1.114 1.378 1.918 2.53 2.050l0.307 0.035v2.013h-11.286l-0.242 0.152c-0.421 0.267-0.446 0.37-0.446 1.821 0 1.454 0.027 1.558 0.469 1.834 0.149 0.094 0.33 0.149 0.523 0.149 0.373 0 0.698-0.206 0.868-0.511l0.003-0.005c0.091-0.174 0.115-0.331 0.13-0.84l0.018-0.627h9.955l0.018 0.627c0.022 0.755 0.109 0.971 0.486 1.206 0.145 0.099 0.325 0.158 0.518 0.158s0.373-0.059 0.522-0.16l-0.003 0.002c0.378-0.235 0.464-0.451 0.486-1.206l0.018-0.627h9.955l0.018 0.627c0.022 0.755 0.109 0.971 0.486 1.206 0.149 0.094 0.33 0.149 0.523 0.149 0.373 0 0.698-0.206 0.868-0.511l0.003-0.005c0.104-0.2 0.112-0.299 0.112-1.467 0-1.451-0.026-1.554-0.446-1.821l-0.242-0.152h-11.286v-2.013l0.307-0.035c1.182-0.148 2.145-0.951 2.523-2.028l0.007-0.021c0.118-0.341 0.123-0.424 0.123-1.93s-0.005-1.589-0.123-1.93c-0.323-0.903-1.023-1.601-1.905-1.915l-0.022-0.007c-0.318-0.106-0.478-0.117-1.79-0.13-1.077-0.011-1.522 0.003-1.77 0.059zM17.37 6.083c0.233 0.106 0.418 0.286 0.527 0.509l0.003 0.006c0.104 0.243 0.106 2.555 0.002 2.805-0.086 0.206-0.406 0.499-0.608 0.557-0.19 0.053-2.395 0.053-2.586 0-0.182-0.053-0.502-0.33-0.603-0.525-0.11-0.216-0.114-2.653-0.002-2.864 0.123-0.198 0.286-0.36 0.479-0.48l0.006-0.004c0.142-0.078 2.576-0.083 2.782-0.005zM2.358 20.078c-0.883 0.198-1.683 0.824-2.045 1.602-0.299 0.638-0.325 0.851-0.301 2.472 0.021 1.368 0.030 1.499 0.142 1.806 0.318 0.878 1.037 1.589 1.915 1.891 0.341 0.118 0.424 0.123 1.93 0.123s1.589-0.005 1.93-0.123c0.902-0.321 1.599-1.018 1.913-1.898l0.007-0.022c0.118-0.341 0.123-0.424 0.123-1.93s-0.005-1.589-0.123-1.93c-0.323-0.903-1.023-1.601-1.905-1.915l-0.022-0.007c-0.318-0.106-0.478-0.117-1.79-0.13-1.088-0.011-1.522 0.003-1.774 0.059zM14.363 20.078c-1.043 0.24-1.867 0.992-2.206 1.971l-0.006 0.021c-0.118 0.341-0.123 0.424-0.123 1.93s0.005 1.589 0.123 1.93c0.321 0.901 1.018 1.599 1.898 1.913l0.022 0.007c0.341 0.118 0.424 0.123 1.93 0.123s1.589-0.005 1.93-0.123c0.901-0.321 1.599-1.018 1.913-1.898l0.007-0.022c0.118-0.341 0.123-0.424 0.123-1.93s-0.005-1.589-0.123-1.93c-0.323-0.903-1.023-1.601-1.905-1.915l-0.022-0.007c-0.318-0.106-0.478-0.117-1.79-0.13-1.077-0.011-1.522 0.003-1.77 0.059zM26.363 20.078c-1.043 0.24-1.867 0.992-2.206 1.971l-0.006 0.021c-0.118 0.341-0.123 0.424-0.123 1.93s0.005 1.589 0.123 1.93c0.321 0.901 1.018 1.599 1.898 1.913l0.022 0.007c0.341 0.118 0.424 0.123 1.93 0.123s1.589-0.005 1.93-0.123c0.901-0.321 1.599-1.018 1.913-1.898l0.007-0.022c0.118-0.341 0.123-0.424 0.123-1.93s-0.005-1.589-0.123-1.93c-0.323-0.903-1.023-1.601-1.905-1.915l-0.022-0.007c-0.318-0.106-0.478-0.117-1.79-0.13-1.077-0.011-1.522 0.003-1.77 0.059zM5.37 22.083c0.233 0.106 0.418 0.286 0.527 0.509l0.003 0.006c0.104 0.243 0.106 2.555 0.002 2.805-0.086 0.206-0.406 0.499-0.608 0.557-0.19 0.053-2.395 0.053-2.586 0-0.182-0.053-0.502-0.33-0.603-0.525-0.11-0.216-0.114-2.653-0.002-2.864 0.123-0.198 0.286-0.36 0.478-0.48l0.006-0.004c0.142-0.078 2.576-0.083 2.782-0.005zM17.429 22.102c0.201 0.123 0.365 0.29 0.481 0.488l0.004 0.007c0.096 0.187 0.082 2.648-0.018 2.838-0.101 0.195-0.421 0.472-0.603 0.525-0.19 0.053-2.395 0.053-2.586 0-0.182-0.053-0.502-0.33-0.603-0.525-0.11-0.216-0.114-2.653-0.002-2.864 0.123-0.198 0.286-0.36 0.479-0.48l0.006-0.004c0.17-0.093 2.659-0.082 2.842 0.014zM29.429 22.102c0.201 0.123 0.365 0.29 0.481 0.488l0.004 0.007c0.096 0.187 0.082 2.648-0.018 2.838-0.101 0.195-0.421 0.472-0.603 0.525-0.19 0.053-2.395 0.053-2.586 0-0.182-0.053-0.502-0.33-0.603-0.525-0.11-0.216-0.114-2.653-0.002-2.864 0.123-0.198 0.286-0.36 0.479-0.48l0.006-0.004c0.17-0.093 2.659-0.082 2.842 0.014z"></path>
    </symbol>

    <symbol id="icon-fridge" viewBox="0 0 32 32">
      <path d="M12.533 1.709c-2.533 0.072-3.859 0.302-4.986 0.862-1.52 0.755-2.443 2.022-2.853 3.915-0.29 1.336-0.371 3.288-0.371 8.846 0 7.35 0.138 8.909 0.93 10.488 0.368 0.734 1 1.469 1.635 1.901 0.285 0.195 0.923 0.523 1.21 0.621l0.195 0.067 0.032 0.619c0.027 0.549 0.046 0.643 0.17 0.829 0.095 0.132 0.208 0.243 0.338 0.333l0.005 0.003c0.194 0.122 0.246 0.126 1.163 0.126s0.97-0.005 1.163-0.126c0.304-0.189 0.461-0.461 0.498-0.864l0.032-0.342h8.614l0.032 0.342c0.037 0.403 0.194 0.675 0.498 0.864 0.194 0.122 0.246 0.126 1.163 0.126s0.97-0.005 1.163-0.126c0.134-0.093 0.248-0.204 0.34-0.332l0.003-0.004c0.123-0.186 0.142-0.28 0.17-0.829l0.032-0.619 0.195-0.067c0.238-0.092 0.429-0.18 0.614-0.276l-0.035 0.016c0.99-0.494 1.773-1.279 2.253-2.242l0.013-0.029c0.792-1.578 0.93-3.128 0.93-10.48 0-5.549-0.083-7.514-0.371-8.846-0.283-1.307-0.781-2.259-1.579-3.022-0.986-0.944-2.12-1.392-4.099-1.626-1.339-0.157-5.874-0.222-9.094-0.13zM20.454 3.736c2.192 0.142 3.144 0.438 3.925 1.219 1.035 1.035 1.274 2.363 1.274 7.083v2.309h-19.306v-2.309c0-4.728 0.237-6.046 1.274-7.083 0.765-0.765 1.747-1.077 3.819-1.216 0.963-0.066 8.030-0.067 9.014-0.003zM22.414 8.371c-0.271 0.088-0.493 0.264-0.639 0.493l-0.003 0.005c-0.082 0.149-0.094 0.363-0.109 1.674-0.011 0.965 0.005 1.581 0.042 1.718 0.116 0.426 0.5 0.734 0.955 0.734 0.276 0 0.526-0.113 0.705-0.296l0-0c0.301-0.299 0.322-0.454 0.304-2.157-0.016-1.402-0.024-1.515-0.126-1.688-0.193-0.306-0.529-0.505-0.912-0.505-0.077 0-0.152 0.008-0.225 0.024l0.007-0.001zM25.653 18.627c0 3.81-0.146 5.154-0.678 6.28-0.262 0.554-0.845 1.136-1.402 1.402-1.195 0.573-2.373 0.678-7.573 0.678-1.981 0-3.986-0.026-4.454-0.056-2.194-0.144-3.146-0.44-3.925-1.219-1.035-1.035-1.274-2.363-1.274-7.085v-2.307h19.306v2.307zM22.414 17.704c-0.271 0.089-0.494 0.265-0.639 0.494l-0.003 0.005c-0.082 0.149-0.094 0.363-0.109 1.674-0.011 0.963 0.005 1.579 0.042 1.717 0.116 0.427 0.5 0.735 0.956 0.735 0.276 0 0.526-0.113 0.705-0.295l0-0c0.301-0.301 0.322-0.454 0.304-2.157-0.016-1.403-0.024-1.515-0.126-1.69-0.194-0.305-0.53-0.505-0.913-0.505-0.077 0-0.151 0.008-0.223 0.023l0.007-0.001z"></path>
    </symbol>

    <symbol id="icon-fuel-pump" viewBox="0 0 32 32">
      <path d="M5.378 0.054c-1.549 0.266-2.699 1.275-3.226 2.826-0.094 0.282-0.099 0.805-0.125 13.707l-0.027 13.413-0.667 0.027c-0.848 0.034-1.056 0.133-1.251 0.6-0.21 0.501 0.042 1.069 0.571 1.29 0.176 0.074 1.403 0.083 11.347 0.083 12.13 0 11.346 0.019 11.674-0.283 0.18-0.189 0.299-0.438 0.324-0.714l0-0.005c-0.016-0.255-0.109-0.485-0.256-0.671l0.002 0.002c-0.2-0.222-0.39-0.275-1.077-0.302l-0.667-0.027-0.014-3.97c-0.006-2.184 0.005-3.989 0.027-4.010 0.074-0.070 0.622 0.066 0.938 0.234 0.371 0.197 0.696 0.546 0.878 0.946 0.123 0.269 0.138 0.381 0.173 1.333 0.045 1.189 0.122 1.525 0.47 2.058 0.536 0.819 1.328 1.299 2.296 1.39 1.395 0.13 2.758-0.84 3.126-2.221 0.066-0.246 0.078-1.045 0.078-5.027v-4.733l0.6-0.002c0.467 0 0.648-0.022 0.816-0.099 0.266-0.126 0.467-0.352 0.558-0.628l0.002-0.008c0.043-0.139 0.053-1.422 0.035-4.411-0.021-3.565-0.037-4.29-0.11-4.715-0.323-1.882-1.056-2.989-2.406-3.638-0.611-0.293-1.16-0.422-1.954-0.458-0.787-0.035-0.888-0.016-1.142 0.206-0.256 0.226-0.344 0.414-0.344 0.738 0 0.642 0.421 1.014 1.147 1.014 0.451 0 1.098 0.134 1.451 0.301 0.725 0.344 1.138 1.088 1.294 2.334 0.029 0.235 0.053 0.578 0.053 0.76v0.331l-1.613 0.016c-1.606 0.018-1.614 0.018-1.845 0.15-0.147 0.089-0.268 0.207-0.357 0.348l-0.003 0.004-0.128 0.218v3.398c0 3.227 0.005 3.406 0.101 3.595 0.219 0.43 0.486 0.544 1.283 0.544h0.589l-0.002 4.6c0 4.378-0.005 4.611-0.101 4.819-0.070 0.141-0.164 0.26-0.278 0.355l-0.002 0.001c-0.173 0.133-0.579 0.262-0.704 0.224-0.035-0.011-0.105-0.028-0.175-0.044l-0.032-0.006c-0.13-0.046-0.242-0.114-0.337-0.199l0.001 0.001c-0.336-0.296-0.36-0.389-0.402-1.539-0.043-1.15-0.086-1.358-0.424-2.026-0.617-1.203-1.798-2.040-3.185-2.164l-0.015-0.001-0.373-0.037v-8.246c-0.002-9.227 0.024-8.619-0.394-9.472-0.493-1.022-1.38-1.788-2.458-2.11l-0.028-0.007-0.4-0.122-6.533-0.010c-3.594-0.005-6.645 0.011-6.782 0.035zM18.323 2.032c0.658 0.12 1.219 0.555 1.51 1.168l0.139 0.293 0.029 26.534h-16.003l0.029-26.534 0.139-0.293c0.274-0.581 0.793-1.007 1.42-1.151l0.014-0.003c0.398-0.086 12.254-0.101 12.723-0.014zM6.614 4.085c-0.219 0.083-0.391 0.247-0.484 0.454l-0.002 0.005c-0.098 0.19-0.101 0.402-0.101 5.456s0.003 5.266 0.101 5.456c0.096 0.216 0.274 0.382 0.493 0.461l0.006 0.002c0.171 0.072 0.835 0.082 5.373 0.082s5.202-0.010 5.373-0.082c0.225-0.080 0.403-0.246 0.497-0.457l0.002-0.005c0.098-0.19 0.101-0.402 0.101-5.456s-0.003-5.266-0.101-5.456c-0.096-0.216-0.274-0.382-0.493-0.461l-0.006-0.002c-0.171-0.072-0.834-0.082-5.384-0.080-4.499 0.002-5.213 0.013-5.374 0.083z"></path>
    </symbol>

    <symbol id="icon-gas-stove" viewBox="0 0 32 32">
      <path d="M6.053 1.555c-0.842 0.085-1.595 0.285-2.206 0.584-0.392 0.171-0.724 0.411-0.995 0.708l-0.002 0.002c-0.299 0.273-0.54 0.605-0.703 0.978l-0.007 0.019c-0.31 0.635-0.498 1.368-0.589 2.309-0.078 0.806-0.078 18.883 0 19.69 0.091 0.941 0.278 1.674 0.589 2.309 0.171 0.392 0.411 0.724 0.708 0.995l0.002 0.002c0.371 0.373 0.523 0.48 0.997 0.71 0.635 0.31 1.368 0.498 2.309 0.589 0.806 0.078 18.883 0.078 19.69 0 0.941-0.091 1.674-0.278 2.309-0.589 0.392-0.171 0.724-0.411 0.995-0.708l0.002-0.002c0.299-0.273 0.54-0.605 0.703-0.978l0.007-0.019c0.31-0.635 0.498-1.368 0.589-2.309 0.078-0.806 0.078-18.883 0-19.69-0.091-0.941-0.278-1.674-0.589-2.309-0.171-0.392-0.411-0.724-0.708-0.995l-0.002-0.002c-0.273-0.299-0.605-0.54-0.978-0.703l-0.019-0.007c-0.635-0.31-1.368-0.498-2.309-0.589-0.726-0.070-19.085-0.066-19.792 0.005zM25.056 3.894c2.496 0.152 2.904 0.565 3.051 3.080 0.067 1.173 0.067 16.878 0 18.051-0.147 2.523-0.558 2.934-3.082 3.082-1.173 0.067-16.878 0.067-18.051 0-2.515-0.147-2.928-0.555-3.080-3.051-0.070-1.154-0.070-16.958 0-18.112 0.106-1.742 0.366-2.386 1.101-2.71 0.389-0.171 1.021-0.29 1.816-0.336 1.037-0.062 17.226-0.066 18.245-0.003zM15.52 5.578c-0.41 0.178-0.64 0.515-0.69 1.003l-0.030 0.315-0.427 0.117c-2.36 0.648-4.045 2.334-4.693 4.694l-0.117 0.426-0.315 0.032c-0.357 0.035-0.57 0.131-0.779 0.35-0.192 0.217-0.309 0.504-0.309 0.818s0.117 0.601 0.311 0.82l-0.001-0.001c0.21 0.219 0.422 0.315 0.779 0.35l0.315 0.030 0.117 0.427c0.648 2.36 2.333 4.045 4.693 4.693l0.427 0.118 0.030 0.314c0.037 0.357 0.133 0.571 0.352 0.779 0.216 0.193 0.503 0.31 0.818 0.31s0.601-0.118 0.819-0.311l-0.001 0.001c0.219-0.208 0.315-0.422 0.352-0.779l0.030-0.314 0.427-0.118c2.362-0.648 4.050-2.338 4.69-4.693l0.117-0.427 0.317-0.030c0.358-0.035 0.571-0.131 0.781-0.35 0.192-0.217 0.309-0.504 0.309-0.818s-0.117-0.601-0.311-0.82l0.001 0.001c-0.21-0.219-0.422-0.315-0.779-0.35l-0.315-0.032-0.074-0.266c-0.384-1.384-0.877-2.267-1.754-3.144-0.799-0.805-1.808-1.401-2.938-1.697l-0.045-0.010-0.427-0.117-0.030-0.317c-0.050-0.496-0.283-0.832-0.701-1.006-0.141-0.049-0.303-0.077-0.472-0.077-0.171 0-0.335 0.029-0.487 0.082l0.010-0.003zM15.11 9.461c0.125 0.19 0.598 0.406 0.886 0.405 0.339-0.014 0.642-0.156 0.864-0.379l0-0 0.157-0.168 0.322 0.098c1.078 0.325 2.253 1.501 2.579 2.578l0.098 0.322-0.16 0.15c-0.261 0.243-0.358 0.48-0.358 0.867 0 0.389 0.098 0.624 0.358 0.869l0.16 0.149-0.098 0.323c-0.326 1.077-1.501 2.251-2.579 2.578l-0.322 0.098-0.149-0.16c-0.245-0.261-0.48-0.358-0.869-0.358s-0.624 0.098-0.869 0.358l-0.149 0.16-0.322-0.098c-1.078-0.326-2.253-1.501-2.579-2.578l-0.098-0.323 0.16-0.149c0.261-0.245 0.358-0.48 0.358-0.869 0-0.387-0.098-0.624-0.358-0.867l-0.16-0.15 0.098-0.322c0.314-1.034 1.381-2.138 2.45-2.534 0.411-0.154 0.478-0.154 0.579 0.002zM7.493 24.261c-0.909 0.421-0.885 1.778 0.038 2.163 0.171 0.072 0.6 0.083 3.147 0.082 2.755-0.002 2.962-0.008 3.162-0.101 0.894-0.413 0.894-1.73 0-2.144-0.2-0.093-0.405-0.099-3.173-0.099-2.77 0-2.974 0.006-3.174 0.099zM23.493 24.261c-0.429 0.198-0.666 0.592-0.666 1.099 0 0.358 0.126 0.634 0.402 0.875 0.254 0.222 0.413 0.28 0.771 0.28s0.517-0.058 0.771-0.28c0.246-0.201 0.402-0.505 0.402-0.845 0-0.015-0-0.029-0.001-0.044l0 0.002c-0.003-0.706-0.486-1.19-1.184-1.187-0.179 0.002-0.349 0.039-0.505 0.103l0.009-0.003z"></path>
    </symbol>

    <symbol id="icon-grid" viewBox="0 0 32 32">
      <path d="M4.22 2.111c-0.67 0.18-1.346 0.674-1.744 1.276-0.121 0.198-0.231 0.427-0.318 0.667l-0.008 0.026-0.15 0.427v6.986l0.148 0.418c0.342 0.967 0.974 1.599 1.941 1.941l0.418 0.148h6.986l0.418-0.148c0.967-0.342 1.599-0.974 1.941-1.941l0.148-0.418v-6.986l-0.148-0.418c-0.354-1.001-1.122-1.727-2.095-1.981-0.452-0.118-7.098-0.115-7.537 0.003zM20.22 2.111c-0.67 0.18-1.346 0.674-1.744 1.276-0.121 0.198-0.231 0.427-0.318 0.667l-0.008 0.026-0.15 0.427v6.986l0.148 0.418c0.342 0.967 0.974 1.599 1.941 1.941l0.418 0.148h6.986l0.418-0.148c0.967-0.342 1.599-0.974 1.941-1.941l0.148-0.418v-6.986l-0.148-0.418c-0.354-1.001-1.122-1.727-2.095-1.981-0.452-0.118-7.098-0.115-7.537 0.003zM11.387 4.101c0.258 0.119 0.42 0.288 0.53 0.551 0.125 0.298 0.125 6.398 0 6.696-0.113 0.272-0.381 0.536-0.608 0.599-0.254 0.070-6.364 0.070-6.618 0-0.227-0.063-0.495-0.327-0.608-0.599-0.125-0.298-0.125-6.398 0-6.696 0.097-0.249 0.286-0.445 0.524-0.549l0.006-0.002c0.2-0.092 0.414-0.099 3.387-0.099s3.187 0.007 3.387 0.099zM27.387 4.101c0.258 0.119 0.42 0.288 0.53 0.551 0.125 0.298 0.125 6.398 0 6.696-0.113 0.272-0.381 0.536-0.608 0.599-0.254 0.070-6.364 0.070-6.618 0-0.227-0.063-0.495-0.327-0.608-0.599-0.125-0.298-0.125-6.398 0-6.696 0.097-0.249 0.286-0.445 0.524-0.549l0.006-0.002c0.2-0.092 0.414-0.099 3.387-0.099s3.187 0.007 3.387 0.099zM4.22 18.111c-0.67 0.18-1.346 0.674-1.744 1.276-0.121 0.198-0.231 0.427-0.318 0.667l-0.008 0.026-0.15 0.427v6.986l0.148 0.418c0.342 0.967 0.974 1.599 1.941 1.941l0.418 0.148h6.986l0.418-0.148c0.967-0.342 1.599-0.974 1.941-1.941l0.148-0.418v-6.986l-0.148-0.418c-0.354-1.001-1.122-1.727-2.095-1.981-0.452-0.118-7.098-0.115-7.537 0.003zM20.22 18.111c-0.67 0.18-1.346 0.674-1.744 1.276-0.121 0.198-0.231 0.427-0.318 0.667l-0.008 0.026-0.15 0.427v6.986l0.148 0.418c0.342 0.967 0.974 1.599 1.941 1.941l0.418 0.148h6.986l0.418-0.148c0.967-0.342 1.599-0.974 1.941-1.941l0.148-0.418v-6.986l-0.148-0.418c-0.354-1.001-1.122-1.727-2.095-1.981-0.452-0.118-7.098-0.115-7.537 0.003zM11.387 20.101c0.258 0.119 0.42 0.288 0.53 0.551 0.125 0.298 0.125 6.398 0 6.696-0.113 0.272-0.381 0.536-0.608 0.599-0.254 0.070-6.364 0.070-6.618 0-0.227-0.063-0.495-0.327-0.608-0.599-0.125-0.298-0.125-6.398 0-6.696 0.097-0.249 0.286-0.445 0.524-0.549l0.006-0.002c0.2-0.092 0.414-0.099 3.387-0.099s3.187 0.007 3.387 0.099zM27.387 20.101c0.258 0.119 0.42 0.288 0.53 0.551 0.125 0.298 0.125 6.398 0 6.696-0.113 0.272-0.381 0.536-0.608 0.599-0.254 0.070-6.364 0.070-6.618 0-0.227-0.063-0.495-0.327-0.608-0.599-0.125-0.298-0.125-6.398 0-6.696 0.097-0.249 0.286-0.445 0.524-0.549l0.006-0.002c0.2-0.092 0.414-0.099 3.387-0.099s3.187 0.007 3.387 0.099z"></path>
    </symbol>

    <symbol id="icon-grid2" viewBox="0 0 32 32">
      <path d="M1.533 0.058c-0.56 0.132-1.075 0.561-1.341 1.115l-0.165 0.347v28.96l0.149 0.32c0.196 0.42 0.607 0.833 1.018 1.023l0.326 0.15h10.987l0.293-0.139c0.602-0.287 1.039-0.837 1.167-1.497l0.002-0.013c0.082-0.448 0.082-28.202 0-28.645-0.099-0.57-0.427-1.049-0.883-1.347l-0.008-0.005c-0.525-0.336-0.358-0.328-6.116-0.322-2.876 0.003-5.319 0.027-5.429 0.053zM19.468 0.085c-0.756 0.205-1.302 0.821-1.441 1.628-0.041 0.236-0.054 1.927-0.043 5.514 0.016 5.171 0.016 5.173 0.132 5.456 0.224 0.546 0.655 0.977 1.201 1.201 0.283 0.116 0.285 0.116 5.456 0.132 3.638 0.011 5.276-0.002 5.52-0.044 0.687-0.118 1.251-0.56 1.536-1.159l0.005-0.013 0.139-0.293v-10.987l-0.15-0.326c-0.225-0.444-0.578-0.795-1.010-1.012l-0.013-0.006-0.32-0.149-5.36-0.011c-4.59-0.009-5.402 0.001-5.652 0.069zM12 16.027v14h-9.973v-28h9.973v14zM29.973 7.013v4.987h-9.973v-9.973h9.973v4.986zM19.325 18.125c-0.518 0.18-0.981 0.636-1.209 1.192-0.116 0.283-0.116 0.285-0.132 5.456-0.011 3.638 0.002 5.276 0.044 5.52 0.118 0.687 0.56 1.251 1.159 1.536l0.013 0.005 0.293 0.139h10.987l0.326-0.15c0.411-0.19 0.822-0.603 1.018-1.023l0.149-0.32v-10.987l-0.139-0.293c-0.198-0.424-0.525-0.761-0.93-0.966l-0.012-0.005-0.356-0.176-5.468-0.012c-5.136-0.011-5.485-0.006-5.743 0.084zM29.973 25.013v5.014h-9.973v-10.027h9.973v5.013z"></path>
    </symbol>

    <symbol id="icon-grid3" viewBox="0 0 32 32">
      <path d="M3.325 2.125c-0.518 0.179-0.981 0.636-1.209 1.192-0.113 0.276-0.116 0.341-0.116 2.683s0.003 2.407 0.116 2.683c0.224 0.546 0.655 0.977 1.201 1.201 0.276 0.113 0.341 0.116 2.683 0.116s2.407-0.003 2.683-0.116c0.547-0.228 0.973-0.654 1.196-1.187l0.005-0.014c0.113-0.276 0.116-0.341 0.116-2.683s-0.003-2.407-0.116-2.683c-0.228-0.556-0.691-1.013-1.209-1.192-0.248-0.086-0.51-0.095-2.675-0.095s-2.427 0.009-2.675 0.095zM13.274 2.151c-0.507 0.198-0.906 0.581-1.119 1.064l-0.005 0.013c-0.123 0.265-0.123 0.266-0.123 2.772v2.507l0.139 0.293c0.287 0.602 0.837 1.039 1.497 1.167l0.013 0.002c0.424 0.077 4.224 0.077 4.648 0 0.673-0.13 1.223-0.567 1.505-1.156l0.005-0.013 0.139-0.293v-5.014l-0.139-0.293c-0.198-0.424-0.525-0.761-0.93-0.966l-0.012-0.005-0.356-0.176-4.963-0.025-0.299 0.123zM23.325 2.125c-0.518 0.179-0.981 0.636-1.209 1.192-0.113 0.276-0.116 0.341-0.116 2.683s0.003 2.407 0.116 2.683c0.224 0.546 0.655 0.977 1.201 1.201 0.276 0.113 0.341 0.116 2.683 0.116s2.407-0.003 2.683-0.116c0.547-0.228 0.973-0.654 1.196-1.187l0.005-0.014c0.113-0.276 0.116-0.341 0.116-2.683s-0.003-2.407-0.116-2.683c-0.228-0.556-0.691-1.013-1.209-1.192-0.248-0.086-0.51-0.095-2.675-0.095s-2.427 0.009-2.675 0.095zM8 6v2h-4v-4h4v2zM17.973 6v2h-3.946v-4h3.946v2zM28 6v2h-4v-4h4v2zM3.468 12.085c-0.742 0.2-1.292 0.809-1.437 1.594-0.077 0.42-0.077 4.22 0 4.645 0.13 0.673 0.567 1.223 1.156 1.505l0.013 0.005 0.293 0.139h5.014l0.293-0.139c0.602-0.287 1.039-0.837 1.167-1.497l0.002-0.013c0.077-0.425 0.077-4.225 0-4.645-0.148-0.797-0.698-1.398-1.461-1.596-0.453-0.118-4.599-0.116-5.040 0.002zM13.533 12.057c-0.564 0.136-1.076 0.562-1.341 1.116l-0.165 0.347v4.96l0.15 0.326c0.19 0.411 0.603 0.822 1.023 1.018l0.32 0.149h4.96l0.326-0.15c0.411-0.19 0.822-0.603 1.018-1.023l0.149-0.32v-4.96l-0.149-0.32c-0.223-0.445-0.574-0.798-1.005-1.017l-0.013-0.006-0.326-0.15-2.373-0.010c-1.306-0.005-2.464 0.013-2.574 0.040zM23.468 12.085c-0.742 0.2-1.292 0.809-1.437 1.594-0.077 0.42-0.077 4.22 0 4.645 0.13 0.673 0.567 1.223 1.156 1.505l0.013 0.005 0.293 0.139h5.014l0.293-0.139c0.602-0.287 1.039-0.837 1.167-1.497l0.002-0.013c0.077-0.425 0.077-4.225 0-4.645-0.148-0.797-0.698-1.398-1.461-1.596-0.453-0.118-4.599-0.116-5.040 0.002zM8 16.027v2h-4v-4h4v2zM17.973 16.027v2h-3.946v-4h3.946v2zM28 16.027v2h-4v-4h4v2zM3.325 22.125c-0.518 0.179-0.981 0.636-1.209 1.192-0.113 0.276-0.116 0.341-0.116 2.683s0.003 2.407 0.116 2.683c0.224 0.546 0.655 0.977 1.201 1.201 0.276 0.113 0.341 0.116 2.683 0.116s2.407-0.003 2.683-0.116c0.547-0.228 0.973-0.654 1.196-1.186l0.005-0.015c0.113-0.276 0.116-0.341 0.116-2.683s-0.003-2.407-0.116-2.683c-0.228-0.556-0.691-1.013-1.209-1.192-0.248-0.086-0.51-0.095-2.675-0.095s-2.427 0.009-2.675 0.095zM13.274 22.151c-0.507 0.198-0.906 0.581-1.119 1.064l-0.005 0.013c-0.123 0.265-0.123 0.266-0.123 2.772v2.507l0.139 0.293c0.287 0.602 0.837 1.039 1.497 1.167l0.013 0.002c0.192 0.035 1.109 0.058 2.324 0.058s2.132-0.023 2.324-0.058c0.673-0.13 1.223-0.567 1.505-1.156l0.005-0.013 0.139-0.293v-5.014l-0.139-0.293c-0.198-0.424-0.525-0.761-0.93-0.966l-0.012-0.005-0.356-0.176-4.963-0.025-0.299 0.123zM23.325 22.125c-0.518 0.179-0.981 0.636-1.209 1.192-0.113 0.276-0.116 0.341-0.116 2.683s0.003 2.407 0.116 2.683c0.224 0.546 0.655 0.977 1.201 1.201 0.276 0.113 0.341 0.116 2.683 0.116s2.407-0.003 2.683-0.116c0.155-0.064 0.385-0.194 0.51-0.29 0.295-0.227 0.546-0.558 0.691-0.911 0.113-0.276 0.116-0.341 0.116-2.683s-0.003-2.407-0.116-2.683c-0.228-0.556-0.691-1.013-1.209-1.192-0.248-0.086-0.51-0.095-2.675-0.095s-2.427 0.009-2.675 0.095zM8 26v2h-4v-4h4v2zM17.973 26v2h-3.946v-4h3.946v2zM28 26v2h-4v-4h4v2z"></path>
    </symbol>

    <symbol id="icon-heart" viewBox="0 0 32 32">
      <path d="M7.253 2.032c-1.080 0.128-1.947 0.379-2.853 0.825-2.155 1.071-3.727 3.038-4.241 5.4l-0.010 0.052c-0.16 0.741-0.171 2.257-0.023 3.051 0.295 1.585 1.021 3.031 2.316 4.609 0.66 0.805 2.111 2.268 4.171 4.205 3.264 3.069 6.233 6.112 8.108 8.305 0.713 0.835 0.815 0.907 1.279 0.907 0.461 0 0.564-0.072 1.255-0.88 1.904-2.228 4.251-4.649 7.252-7.483 3.237-3.055 4.605-4.452 5.448-5.56 1.347-1.771 1.948-3.335 2.027-5.277 0.007-0.122 0.011-0.265 0.011-0.409 0-1.234-0.304-2.397-0.84-3.418l0.019 0.040c-1.104-2.22-3.213-3.792-5.732-4.271-0.697-0.132-2.087-0.135-2.739-0.005-1.621 0.324-2.967 1.096-4.305 2.471-0.813 0.828-1.513 1.77-2.071 2.801l-0.033 0.066c-0.137 0.252-0.267 0.459-0.289 0.459s-0.12-0.151-0.217-0.333c-0.616-1.144-1.343-2.128-2.188-2.996l0.003 0.003c-1.312-1.353-2.705-2.156-4.273-2.46-0.433-0.084-1.696-0.147-2.073-0.101zM9.403 4.207c0.911 0.273 1.74 0.78 2.537 1.551 1.103 1.065 1.649 1.901 3.001 4.589 0.568 1.128 1.044 2.052 1.059 2.052s0.488-0.917 1.052-2.040c1.359-2.704 1.905-3.539 3.009-4.599 0.831-0.799 1.593-1.265 2.536-1.557 0.44-0.136 0.531-0.145 1.456-0.144 0.895 0.003 1.036 0.015 1.508 0.143 1.092 0.293 2.024 0.851 2.825 1.688 1.072 1.121 1.584 2.409 1.585 3.985 0.003 1.419-0.345 2.516-1.203 3.805-0.757 1.139-1.865 2.315-4.689 4.977-3.133 2.953-5.737 5.583-7.469 7.543-0.317 0.359-0.592 0.653-0.611 0.653s-0.293-0.295-0.611-0.653c-1.732-1.96-4.336-4.589-7.469-7.543-3.404-3.208-4.521-4.469-5.239-5.911-0.769-1.543-0.879-3.437-0.288-4.964 0.508-1.312 1.588-2.492 2.872-3.136 0.927-0.465 1.679-0.624 2.841-0.599 0.707 0.015 0.895 0.039 1.296 0.159z"></path>
    </symbol>

    <symbol id="icon-microwave" viewBox="0 0 32 32">
      <path d="M4.822 4.378c-0.779 0.091-1.464 0.437-2.069 1.042-0.592 0.559-0.982 1.328-1.049 2.187l-0.001 0.012c-0.037 0.339-0.050 3.115-0.038 8.090 0.016 7.013 0.024 7.597 0.11 7.893 0.302 1.031 0.998 1.863 1.91 2.339l0.021 0.010c0.611 0.301 0.891 0.35 2.141 0.382l1.128 0.030 0.019 0.966c0.021 1.002 0.038 1.093 0.278 1.357 0.181 0.2 0.411 0.293 0.726 0.293s0.546-0.093 0.726-0.293c0.24-0.264 0.258-0.355 0.278-1.365l0.019-0.973h13.952l0.019 0.973c0.021 1.010 0.038 1.101 0.278 1.365 0.181 0.2 0.411 0.293 0.726 0.293s0.546-0.093 0.726-0.293c0.24-0.264 0.258-0.355 0.278-1.357l0.019-0.966 1.128-0.030c1.25-0.032 1.53-0.082 2.141-0.382 0.942-0.487 1.642-1.331 1.926-2.349l0.006-0.027c0.088-0.323 0.094-0.872 0.094-8.24s-0.006-7.915-0.094-8.24c-0.361-1.285-1.346-2.278-2.599-2.644l-0.027-0.007c-0.301-0.088-1.006-0.094-11.36-0.101-6.072-0.005-11.21 0.011-11.418 0.037zM27.272 6.454c0.387 0.146 0.795 0.554 0.939 0.941 0.107 0.285 0.109 0.382 0.109 7.938 0 7.557-0.002 7.653-0.109 7.939-0.144 0.387-0.552 0.795-0.939 0.939-0.288 0.109-0.366 0.109-11.272 0.109s-10.984 0-11.272-0.109c-0.424-0.183-0.756-0.515-0.935-0.928l-0.004-0.011c-0.107-0.286-0.109-0.382-0.109-7.939 0-7.555 0.002-7.653 0.109-7.938 0.141-0.378 0.552-0.795 0.925-0.938 0.269-0.104 0.453-0.106 11.27-0.109 10.925-0.002 11-0.002 11.288 0.106zM8.934 9.712c-0.443 0.066-0.853 0.285-1.229 0.661-0.387 0.389-0.592 0.782-0.664 1.28-0.070 0.494-0.070 6.866 0 7.36 0.072 0.498 0.277 0.893 0.664 1.282 0.389 0.387 0.784 0.592 1.282 0.664 0.498 0.070 8.195 0.070 8.693 0 0.498-0.072 0.893-0.277 1.28-0.664 0.389-0.389 0.594-0.784 0.664-1.282 0.070-0.494 0.070-6.866 0-7.36-0.071-0.509-0.312-0.952-0.663-1.279l-0.001-0.001c-0.328-0.352-0.771-0.593-1.269-0.663l-0.011-0.001c-0.461-0.066-8.29-0.062-8.746 0.003zM23.739 9.706c-0.396 0.111-0.688 0.452-0.725 0.867l-0 0.004c-0.019 0.152-0.026 2.402-0.018 4.997 0.014 4.274 0.026 4.736 0.104 4.88 0.113 0.194 0.273 0.349 0.466 0.453l0.006 0.003c0.187 0.096 0.686 0.086 0.888-0.018 0.22-0.128 0.39-0.322 0.484-0.554l0.003-0.008c0.051-0.187 0.051-9.806 0-9.992-0.092-0.231-0.253-0.42-0.456-0.544l-0.005-0.003c-0.15-0.068-0.326-0.107-0.51-0.107-0.084 0-0.166 0.008-0.245 0.024l0.008-0.001zM17.555 11.768c0.093 0.085 0.098 0.264 0.098 3.557 0 3.15-0.008 3.475-0.088 3.565-0.083 0.093-0.285 0.098-4.222 0.098-3.771 0-4.142-0.008-4.232-0.088-0.093-0.085-0.098-0.266-0.098-3.557 0-3.152 0.008-3.477 0.088-3.565 0.085-0.093 0.286-0.098 4.224-0.098 3.771 0 4.142 0.008 4.23 0.088z"></path>
    </symbol>

    <symbol id="icon-radios" viewBox="0 0 32 32">
      <path d="M4.773 2.133c-1.194 0.249-2.224 0.833-3.018 1.648l-0.001 0.001c-0.785 0.793-1.356 1.799-1.621 2.923l-0.008 0.042c-0.136 0.594-0.136 1.907 0.002 2.506 0.576 2.549 2.704 4.466 5.318 4.718l0.025 0.002c0.155 0.014 0.336 0.022 0.518 0.022 0.959 0 1.865-0.224 2.669-0.624l-0.035 0.016c1.637-0.818 2.835-2.305 3.246-4.093l0.008-0.041c0.136-0.595 0.136-1.91 0-2.506-0.51-2.218-2.192-3.976-4.344-4.544-0.723-0.192-2.045-0.226-2.758-0.070zM14.581 4.102c-0.278 0.136-0.482 0.389-0.549 0.692l-0.001 0.007c-0.070 0.309-0.070 2.088 0 2.397 0.074 0.315 0.278 0.576 0.55 0.699 0.211 0.096 0.501 0.101 7.419 0.101s7.208-0.005 7.419-0.101c0.278-0.136 0.482-0.389 0.549-0.692l0.001-0.007c0.030-0.131 0.054-0.67 0.054-1.198s-0.024-1.067-0.054-1.198c-0.068-0.31-0.272-0.563-0.544-0.697l-0.006-0.003c-0.211-0.096-0.501-0.101-7.419-0.101s-7.208 0.005-7.419 0.101zM6.907 5.139c1.058 0.331 1.914 1.357 2.053 2.461 0.017 0.121 0.027 0.261 0.027 0.403 0 1.648-1.336 2.984-2.984 2.984-0.001 0-0.002 0-0.004 0h0c-1.327-0.003-2.452-0.865-2.848-2.059l-0.006-0.021c-0.176-0.517-0.168-1.326 0.016-1.854 0.337-0.962 1.115-1.691 2.084-1.955l0.021-0.005c0.382-0.096 1.262-0.072 1.64 0.046zM14.587 10.088c-0.186 0.117-0.342 0.266-0.464 0.44l-0.003 0.005c-0.068 0.132-0.108 0.289-0.108 0.455 0 0.398 0.229 0.742 0.563 0.908l0.006 0.003c0.21 0.096 0.454 0.101 5.419 0.101s5.21-0.005 5.419-0.101c0.339-0.168 0.569-0.512 0.569-0.91 0-0.166-0.040-0.322-0.11-0.46l0.003 0.006c-0.126-0.194-0.299-0.347-0.503-0.446l-0.007-0.003c-0.214-0.082-10.635-0.075-10.782 0.005zM4.773 18.133c-1.194 0.249-2.224 0.833-3.018 1.648l-0.001 0.001c-0.785 0.793-1.356 1.799-1.621 2.923l-0.008 0.042c-0.136 0.594-0.136 1.907 0.002 2.506 0.576 2.549 2.704 4.466 5.318 4.718l0.025 0.002c0.155 0.014 0.336 0.022 0.518 0.022 0.959 0 1.865-0.224 2.669-0.624l-0.035 0.016c1.637-0.818 2.835-2.305 3.246-4.093l0.008-0.041c0.136-0.595 0.136-1.91 0-2.506-0.51-2.218-2.192-3.976-4.344-4.544-0.723-0.192-2.045-0.226-2.758-0.070zM14.581 20.102c-0.278 0.136-0.482 0.389-0.549 0.692l-0.001 0.007c-0.070 0.309-0.070 2.088 0 2.397 0.074 0.315 0.278 0.576 0.55 0.699 0.211 0.096 0.501 0.101 7.419 0.101s7.208-0.005 7.419-0.101c0.278-0.136 0.482-0.389 0.549-0.692l0.001-0.007c0.072-0.317 0.072-2.054-0.002-2.397-0.059-0.315-0.267-0.572-0.546-0.698l-0.006-0.002c-0.206-0.094-0.544-0.099-7.416-0.099-6.918 0-7.208 0.005-7.419 0.101zM14.587 26.088c-0.186 0.117-0.342 0.266-0.464 0.44l-0.003 0.005c-0.068 0.132-0.108 0.289-0.108 0.455 0 0.398 0.229 0.742 0.563 0.908l0.006 0.003c0.21 0.096 0.454 0.101 5.419 0.101s5.21-0.005 5.419-0.101c0.339-0.168 0.569-0.512 0.569-0.91 0-0.166-0.040-0.322-0.11-0.46l0.003 0.006c-0.126-0.194-0.299-0.347-0.503-0.446l-0.007-0.003c-0.214-0.082-10.635-0.075-10.782 0.005z"></path>
    </symbol>

    <symbol id="icon-shower" viewBox="0 0 32 32">
      <path d="M26.613 4.085c-0.115 0.050-0.928 0.819-2.141 2.032l-1.955 1.954-8.029 1.373c-6.533 1.117-8.083 1.398-8.322 1.507-0.419 0.197-0.75 0.522-0.948 0.924l-0.005 0.012c-0.158 0.322-0.173 0.394-0.173 0.859 0.002 0.912-0.576 0.261 6.635 7.483 7.174 7.186 6.65 6.714 7.498 6.749 0.339 0.014 0.491-0.005 0.736-0.098 0.576-0.216 1.067-0.714 1.232-1.248 0.046-0.149 0.694-3.846 1.44-8.214l1.357-7.941 3.448-3.45h1.771c1.082 0 1.877-0.024 2.043-0.059 0.723-0.155 1.043-1.040 0.57-1.579-0.341-0.387-0.333-0.387-2.782-0.386-1.822 0.002-2.218 0.014-2.374 0.082zM21.741 10.413l-1.234 7.214c-0.661 3.872-1.216 7.109-1.234 7.194-0.030 0.147-0.304-0.117-6.131-5.944-3.354-3.355-6.090-6.107-6.078-6.118 0.021-0.022 14.456-2.506 14.608-2.514 0.085-0.003 0.094 0.022 0.069 0.168zM6.080 20.046c-0.742 0.245-1.166 0.846-1.107 1.576 0.053 0.763 0.684 1.362 1.456 1.362 0.008 0 0.017-0 0.025-0l-0.001 0c1.557 0 2.062-2.104 0.675-2.806-0.29-0.147-0.803-0.211-1.048-0.131zM2.080 24.046c-0.742 0.245-1.166 0.846-1.107 1.576 0.053 0.763 0.684 1.362 1.456 1.362 0.008 0 0.017-0 0.025-0l-0.001 0c1.557 0 2.062-2.104 0.675-2.806-0.29-0.147-0.803-0.211-1.048-0.131zM10.080 24.046c-0.742 0.245-1.166 0.846-1.107 1.576 0.053 0.763 0.684 1.362 1.456 1.362 0.008 0 0.017-0 0.025-0l-0.001 0c1.557 0 2.062-2.104 0.675-2.806-0.29-0.147-0.803-0.211-1.048-0.131zM6.011 28.088c-0.36 0.148-0.652 0.402-0.844 0.723l-0.004 0.008c-0.16 0.315-0.192 0.869-0.069 1.194 0.172 0.381 0.465 0.683 0.828 0.863l0.010 0.005c0.226 0.098 0.346 0.115 0.651 0.094 0.462-0.030 0.741-0.163 1.032-0.494 0.234-0.26 0.378-0.605 0.378-0.985 0-0.784-0.613-1.425-1.387-1.47l-0.004-0c-0.045-0.005-0.098-0.008-0.151-0.008-0.158 0-0.31 0.026-0.451 0.073l0.010-0.003z"></path>
    </symbol>

    <symbol id="icon-star" viewBox="0 0 32 32">
      <path d="M15.51 2.282c-0.117 0.065-0.216 0.149-0.297 0.248l-0.001 0.002c-0.056 0.082-0.96 1.78-2.010 3.774-1.29 2.456-1.962 3.682-2.082 3.798-0.106 0.098-0.234 0.174-0.375 0.222l-0.007 0.002c-0.112 0.030-2.010 0.366-4.218 0.748s-4.080 0.73-4.16 0.772c-0.319 0.169-0.533 0.499-0.533 0.879 0 0.142 0.030 0.277 0.083 0.399l-0.002-0.006c0.056 0.122 1.222 1.362 2.998 3.192 1.6 1.646 2.948 3.068 2.998 3.16 0.058 0.129 0.093 0.281 0.094 0.44v0c0 0.15-0.26 2.090-0.582 4.312-0.096 0.453-0.294 1.853-0.476 3.259l-0.088 0.841c0.010 0.034 0.034 0.128 0.050 0.208 0.018 0.080 0.108 0.232 0.2 0.336 0.388 0.444 0.772 0.474 1.5 0.118l3.81-1.874c3.034-1.492 3.342-1.632 3.59-1.632s0.584 0.154 4.014 1.842c2.060 1.014 3.836 1.864 3.95 1.89 0.438 0.098 1.040-0.262 1.13-0.678l0.052-0.208c0.010-0.034-0.244-1.88-0.564-4.1-0.322-2.222-0.582-4.162-0.582-4.312 0.001-0.16 0.035-0.312 0.097-0.449l-0.003 0.007c0.050-0.092 1.398-1.514 2.998-3.16 1.772-1.824 2.942-3.072 2.998-3.192 0.051-0.116 0.081-0.251 0.081-0.393 0-0.38-0.214-0.71-0.528-0.877l-0.005-0.003c-0.080-0.042-1.952-0.39-4.16-0.772-3.059-0.484-4.49-0.745-5.917-1.018l1.699 0.27c-0.148-0.050-0.276-0.126-0.383-0.225l0.001 0.001c-0.12-0.116-0.786-1.33-2.082-3.798-1.050-1.994-1.954-3.692-2.010-3.774-0.24-0.342-0.87-0.466-1.278-0.25z"></path>
    </symbol>

    <symbol id="icon-tv" viewBox="0 0 32 32">
      <path d="M3.2 4.063c-0.798 0.109-1.496 0.473-2.024 1.006l-0 0c-0.41 0.41-0.658 0.808-0.862 1.383-0.326 0.923-0.314 0.622-0.313 7.639 0 6.062 0.006 6.442 0.1 6.896 0.302 1.45 1.179 2.354 2.752 2.838l0.48 0.148 8.667 0.031v0.251c0 0.768-0.173 1.889-0.373 2.424l-0.111 0.297-0.891 0.020c-0.695 0.016-0.927 0.040-1.052 0.107-0.775 0.422-0.745 1.439 0.054 1.809 0.203 0.095 0.49 0.099 6.373 0.099s6.17-0.004 6.373-0.099c0.394-0.182 0.614-0.509 0.614-0.912 0-0.009 0.001-0.021 0.001-0.032 0-0.244-0.098-0.465-0.258-0.626l0 0c-0.28-0.296-0.39-0.324-1.355-0.346l-0.891-0.020-0.111-0.297c-0.201-0.535-0.373-1.656-0.373-2.426v-0.253l4.253-0.001c3.949 0 4.288-0.008 4.734-0.1 1.45-0.302 2.353-1.178 2.838-2.752l0.148-0.48 0.015-6.558c0.013-5.819 0.005-6.608-0.071-7.013-0.253-1.356-1.058-2.3-2.368-2.778-0.92-0.336-0.148-0.319-13.676-0.311-7.242 0.003-12.469 0.027-12.673 0.056zM28.919 6.205c0.421 0.178 0.752 0.478 0.913 0.827l0.115 0.248v13.28l-0.144 0.335c-0.286 0.666-0.666 0.964-1.376 1.076-0.478 0.076-24.217 0.076-24.682 0-0.778-0.126-1.294-0.442-1.541-0.943l-0.151-0.308v-13.28l0.142-0.33c0.249-0.58 0.523-0.85 1.022-1.007 0.182-0.057 2.55-0.068 12.783-0.060l12.56 0.010 0.359 0.152z"></path>
    </symbol>

    <symbol id="icon-water" viewBox="0 0 32 32">
      <path d="M15.43 2.605c-0.406 0.141-0.595 0.31-1.31 1.171-2.798 3.37-5.245 7.131-6.563 10.091-1.083 2.435-1.53 4.256-1.53 6.238 0 2.962 0.902 5.338 2.715 7.152 1.411 1.411 3.002 2.195 5.259 2.592 0.763 0.134 3.234 0.134 3.997 0 2.258-0.397 3.848-1.181 5.259-2.592 1.405-1.406 2.208-3.030 2.584-5.232 0.118-0.686 0.165-2.506 0.082-3.181-0.394-3.226-2.16-7.042-5.354-11.565-1.253-1.774-3.166-4.165-3.568-4.456-0.281-0.195-0.629-0.312-1.005-0.312-0.203 0-0.397 0.034-0.579 0.097l0.012-0.004zM16.627 5.4c2.189 2.664 4.282 5.803 5.52 8.28 0.978 1.957 1.61 3.843 1.797 5.358 0.109 0.88 0.058 1.998-0.138 3.014-0.288 1.502-0.981 2.84-1.978 3.822-1.429 1.406-3.4 2.125-5.829 2.125-1.506 0-2.811-0.27-3.973-0.824-2.654-1.264-4.141-4.008-4.011-7.41 0.043-1.158 0.222-2.037 0.698-3.421 0.752-2.194 2.216-4.874 4.24-7.758 1.037-1.477 2.928-3.894 3.046-3.894 0.026 0 0.307 0.318 0.627 0.707zM21.12 19.579c-0.215 0.111-0.388 0.275-0.507 0.476l-0.003 0.006c-0.040 0.078-0.096 0.378-0.125 0.667-0.091 0.946-0.339 1.509-0.946 2.152-0.662 0.701-1.334 1.018-2.368 1.115-0.45 0.042-0.568 0.074-0.717 0.187-0.262 0.2-0.411 0.437-0.442 0.696-0.005 0.039-0.009 0.083-0.009 0.129 0 0.38 0.22 0.709 0.541 0.866l0.006 0.003c0.198 0.102 0.28 0.11 0.835 0.083 1.405-0.077 2.652-0.694 3.548-1.645l0.002-0.003c0.901-0.942 1.376-1.957 1.518-3.25 0.067-0.61 0.042-0.843-0.117-1.101-0.222-0.363-0.805-0.544-1.218-0.381z"></path>
    </symbol>

    <symbol id="icon-wind" viewBox="0 0 32 32">
      <path d="M23.813 2.106c-1.483 0.263-2.771 0.962-3.761 1.957l-0 0c-1.24 1.227-2.008 2.995-2.038 4.693-0.006 0.376 0.013 0.539 0.080 0.664 0.117 0.218 0.434 0.491 0.614 0.531l0.206 0.050c0.125 0.038 0.531-0.091 0.706-0.224 0.254-0.194 0.362-0.488 0.402-1.090 0.117-1.868 1.25-3.445 2.848-4.197l0.030-0.013c2.97-1.392 6.502 0.472 7.024 3.704 0.091 0.571 0.038 1.656-0.106 2.157-0.25 0.862-0.698 1.601-1.294 2.192l-0 0c-0.65 0.653-1.37 1.062-2.336 1.33l-0.507 0.141-12.507 0.027c-11.725 0.024-12.517 0.032-12.675 0.118-0.295 0.173-0.49 0.489-0.49 0.85 0 0.063 0.006 0.125 0.017 0.185l-0.001-0.006c0.046 0.314 0.371 0.69 0.662 0.771 0.274 0.077 24.648 0.075 25.216-0.002 2.704-0.372 4.893-2.236 5.731-4.722l0.015-0.050c0.226-0.686 0.301-1.125 0.333-1.92 0.050-1.218-0.17-2.229-0.726-3.36-0.988-1.969-2.827-3.386-5.022-3.775l-0.042-0.006c-0.605-0.102-1.842-0.106-2.378-0.006zM10.24 4.075c-0.829 0.176-1.469 0.528-2.082 1.146-0.376 0.379-0.499 0.547-0.704 0.966-0.515 1.050-0.6 2-0.219 2.453 0.185 0.218 0.459 0.355 0.765 0.355 0.244 0 0.467-0.087 0.641-0.232l-0.002 0.001c0.235-0.198 0.318-0.394 0.374-0.878 0.086-0.766 0.44-1.306 1.078-1.653 0.32-0.173 0.358-0.181 0.894-0.181 0.51 0 0.587 0.014 0.877 0.157 1.763 0.866 1.357 3.446-0.594 3.766-0.181 0.029-2.435 0.050-5.419 0.050-4.979 0.002-5.114 0.003-5.315 0.106-0.387 0.198-0.579 0.59-0.512 1.043 0.048 0.32 0.371 0.693 0.674 0.773 0.136 0.037 2.005 0.050 5.606 0.038 5.008-0.014 5.426-0.022 5.723-0.112 1.101-0.328 2.046-1.098 2.533-2.062 0.309-0.61 0.4-1.024 0.4-1.811s-0.091-1.202-0.4-1.811c-0.531-0.993-1.427-1.732-2.504-2.046l-0.029-0.007c-0.45-0.12-1.358-0.15-1.787-0.061zM0.525 18.134c-0.31 0.165-0.518 0.486-0.518 0.855 0 0.248 0.093 0.474 0.247 0.645l-0.001-0.001c0.106 0.117 0.242 0.24 0.302 0.275 0.085 0.050 2.611 0.072 10.672 0.093 11.781 0.032 10.73-0.005 11.573 0.398 1.966 0.939 2.821 3.318 1.898 5.28-0.51 1.075-1.449 1.875-2.589 2.189l-0.028 0.007c-0.536 0.147-1.558 0.133-2.080-0.027-0.662-0.194-1.23-0.538-1.685-0.994l-0-0c-0.733-0.725-1.090-1.486-1.2-2.549-0.075-0.742-0.197-0.987-0.595-1.192-0.131-0.054-0.282-0.085-0.441-0.085-0.156 0-0.305 0.030-0.441 0.085l0.008-0.003c-0.24 0.123-0.49 0.432-0.531 0.658-0.056 0.293 0.016 1.165 0.133 1.619 0.307 1.2 0.838 2.118 1.702 2.944 1.070 1.033 2.528 1.669 4.135 1.669 1.664 0 3.168-0.682 4.248-1.782l0.001-0.001c1.314-1.325 1.952-3.197 1.702-4.995-0.192-1.353-0.806-2.536-1.703-3.439l0 0c-0.753-0.75-1.696-1.31-2.749-1.602l-0.044-0.010-0.434-0.117-10.694-0.011c-10.494-0.013-10.696-0.011-10.888 0.091z"></path>
    </symbol>

    <symbol id="icon-map" viewBox="0 0 32 32">
      <path d="M5.786 1.018c-2.756 0.554-5.102 1.046-5.21 1.094-0.229 0.097-0.406 0.28-0.492 0.508l-0.002 0.006c-0.074 0.176-0.082 1.7-0.082 14.388 0 11.776 0.012 14.218 0.072 14.362 0.104 0.246 0.47 0.558 0.712 0.604 0.158 0.030 1.286-0.178 5.202-0.96l5-0.998 10.004 2 5.21-1.044c5.794-1.16 5.482-1.074 5.7-1.568 0.098-0.22 0.1-0.612 0.086-14.488l-0.012-14.264-0.134-0.196c-0.144-0.214-0.572-0.462-0.798-0.462-0.074 0-2.368 0.446-5.096 0.992l-4.96 0.992-4.96-0.992c-0.3-0.112-2.023-0.456-3.753-0.778l-1.339-0.208c-0.074 0.002-2.39 0.458-5.148 1.012zM9.974 15.214v12.974l-7.948 1.584v-25.96l3.88-0.78c2.134-0.43 3.922-0.784 3.974-0.786 0.088-0.006 0.094 0.646 0.094 12.968zM16.054 3.032l3.92 0.786 0.012 12.972c0.008 7.134-0.004 12.972-0.026 12.972-0.022 0.002-1.822-0.352-4-0.786l-3.96-0.788v-12.974c0-10.346 0.014-12.974 0.066-12.972 0.038 0.002 1.832 0.358 3.988 0.79zM29.974 15.214v12.974l-7.948 1.584v-25.96l3.88-0.78c2.134-0.43 3.922-0.784 3.974-0.786 0.088-0.006 0.094 0.646 0.094 12.968z"></path>
    </symbol>
  </defs>
</svg>
